HIERARCHY
ROOT Hips
{
	OFFSET 0.000000 0.000000 0.000000
	CHANNELS 6 Xposition Yposition Zposition Zrotation Yrotation Xrotation 
	JOINT LHipJoint
	{
		OFFSET 0.000000 0.000000 0.000000
		CHANNELS 3 Zrotation Yrotation Xrotation
		JOINT LeftUpLeg
		{
			OFFSET 1.363060 -1.794630 0.839290
			CHANNELS 3 Zrotation Yrotation Xrotation
			JOINT LeftLeg
			{
				OFFSET 2.448110 -6.726130 0.000000
				CHANNELS 3 Zrotation Yrotation Xrotation
				JOINT LeftFoot
				{
					OFFSET 2.562200 -7.039590 0.000000
					CHANNELS 3 Zrotation Yrotation Xrotation
					JOINT LeftToeBase
					{
						OFFSET 0.157640 -0.433110 2.322550
						CHANNELS 3 Zrotation Yrotation Xrotation
						End Site
						{
							OFFSET 0.000000 0.000000 0.000000
						}
					}
				}
			}
		}
	}
	JOINT RHipJoint
	{
		OFFSET 0.000000 0.000000 0.000000
		CHANNELS 3 Zrotation Yrotation Xrotation
		JOINT RightUpLeg
		{
			OFFSET -1.305520 -1.794630 0.839290
			CHANNELS 3 Zrotation Yrotation Xrotation
			JOINT RightLeg
			{
				OFFSET -2.542530 -6.985550 0.000000
				CHANNELS 3 Zrotation Yrotation Xrotation
				JOINT RightFoot
				{
					OFFSET -2.568260 -7.056230 0.000000
					CHANNELS 3 Zrotation Yrotation Xrotation
					JOINT RightToeBase
					{
						OFFSET -0.164730 -0.452590 2.363150
						CHANNELS 3 Zrotation Yrotation Xrotation
						End Site
						{
							OFFSET 0.000000 0.000000 0.000000
						}
					}
				}
			}
		}
	}
	JOINT LowerBack
	{
		OFFSET 0.000000 0.000000 0.000000
		CHANNELS 3 Zrotation Yrotation Xrotation
		JOINT Spine
		{
			OFFSET 0.028270 2.035590 -0.193380
			CHANNELS 3 Zrotation Yrotation Xrotation
			JOINT Spine1
			{
				OFFSET 0.056720 2.048850 -0.042750
				CHANNELS 3 Zrotation Yrotation Xrotation
				JOINT Neck
				{
					OFFSET 0.000000 0.000000 0.000000
					CHANNELS 3 Zrotation Yrotation Xrotation
					JOINT Neck1
					{
						OFFSET -0.054170 1.746240 0.172020
						CHANNELS 3 Zrotation Yrotation Xrotation
						JOINT Head
						{
							OFFSET 0.104070 1.761360 -0.123970
							CHANNELS 3 Zrotation Yrotation Xrotation
							End Site
							{
								OFFSET 0.000000 0.000000 0.000000
							}
						}
					}
				}
				JOINT LeftShoulder
				{
					OFFSET 0.000000 0.000000 0.000000
					CHANNELS 3 Zrotation Yrotation Xrotation
					JOINT LeftArm
					{
						OFFSET 3.362410 1.200890 -0.311210
						CHANNELS 3 Zrotation Yrotation Xrotation
						JOINT LeftForeArm
						{
							OFFSET 4.983000 -0.000000 -0.000000
							CHANNELS 3 Zrotation Yrotation Xrotation
							JOINT LeftHand
							{
								OFFSET 3.483560 -0.000000 -0.000000
								CHANNELS 3 Zrotation Yrotation Xrotation
								JOINT LeftFingerBase
								{
									OFFSET 0.000000 0.000000 0.000000
									CHANNELS 3 Zrotation Yrotation Xrotation
									JOINT LeftHandIndex1
									{
										OFFSET 0.715260 -0.000000 -0.000000
										CHANNELS 3 Zrotation Yrotation Xrotation
										End Site
										{
											OFFSET 0.000000 0.000000 0.000000
										}
									}
								}
								JOINT LThumb
								{
									OFFSET 0.000000 0.000000 0.000000
									CHANNELS 3 Zrotation Yrotation Xrotation
									End Site
									{
										OFFSET 0.000000 0.000000 0.000000
									}
								}
							}
						}
					}
				}
				JOINT RightShoulder
				{
					OFFSET 0.000000 0.000000 0.000000
					CHANNELS 3 Zrotation Yrotation Xrotation
					JOINT RightArm
					{
						OFFSET -3.136600 1.374050 -0.404650
						CHANNELS 3 Zrotation Yrotation Xrotation
						JOINT RightForeArm
						{
							OFFSET -5.241900 -0.000000 -0.000000
							CHANNELS 3 Zrotation Yrotation Xrotation
							JOINT RightHand
							{
								OFFSET -3.444170 -0.000000 -0.000000
								CHANNELS 3 Zrotation Yrotation Xrotation
								JOINT RightFingerBase
								{
									OFFSET 0.000000 0.000000 0.000000
									CHANNELS 3 Zrotation Yrotation Xrotation
									JOINT RightHandIndex1
									{
										OFFSET -0.622530 -0.000000 -0.000000
										CHANNELS 3 Zrotation Yrotation Xrotation
										End Site
										{
											OFFSET 0.000000 0.000000 0.000000
										}
									}
								}
								JOINT RThumb
								{
									OFFSET 0.000000 0.000000 0.000000
									CHANNELS 3 Zrotation Yrotation Xrotation
									End Site
									{
										OFFSET 0.000000 0.000000 0.000000
									}
								}
							}
						}
					}
				}
			}
		}
	}
}
MOTION
Frames: 10
Frame Time: 0.008333
-17.609910 14.267883 1.483676 -160.257519 -87.694452 163.270665 -1.419322 17.821940 4.999227 -13.055831 -27.840612 -56.293845 -0.242150 2.638094 35.697090 -21.160661 -5.180952 12.586197 -11.779293 20.620420 23.384371 1.673549 -14.986299 6.186319 25.565306 13.998749 -63.277219 -15.056562 -19.951046 79.754900 22.909703 -7.848027 5.347166 29.851259 21.258843 92.176148 -0.897682 -2.066312 0.717326 -0.199004 2.948360 0.100988 -6.989356 2.627870 7.636207 -0.187866 -0.748779 -3.685469 0.823743 -1.354451 17.438824 9.006062 -7.753815 6.806806 12.149848 0.771493 1.240096 -84.386749 21.442934 1.521207 161.207749 -79.954271 -149.002511 1.619997 8.042757 -1.041990 -0.000000 -0.000001 -0.000000 0.000000 -0.000000 0.000000 -0.000000 0.000000 0.000000 -4.234584 6.720267 9.618754 72.551614 45.622002 7.550627 -64.318087 86.418073 -32.905265 1.556468 15.154896 2.372556 0.000000 0.000000 0.000000 -0.000000 -0.000000 -0.000000 0.000000 0.000000 -0.000000 
-17.760961 14.266712 1.426156 -155.359685 -87.259424 158.291893 -1.777988 17.762234 5.075585 -11.215937 -28.006801 -57.163567 -1.349380 2.206116 38.236295 -18.496781 -4.302777 10.015979 -9.162929 11.719060 20.411396 1.912794 -14.866028 6.328463 24.882684 13.332118 -64.366667 -14.954233 -19.887637 80.944272 24.490070 -8.366836 5.650812 29.300380 21.691684 90.561510 -0.628965 -2.109293 0.476817 -0.176092 3.000474 0.271173 -6.835981 2.490984 7.767365 -0.294763 -0.620287 -3.786303 0.750636 -1.232333 17.603624 9.017645 -7.590031 7.209931 12.024537 0.923087 1.041001 -84.192270 22.175310 1.933263 161.039894 -79.330676 -148.282562 0.816321 8.313573 -1.123649 -0.000000 -0.000001 -0.000000 -0.000000 0.000000 0.000000 0.000000 0.000000 0.000000 -4.209525 6.199345 9.865899 73.168161 46.296792 9.375156 -82.516560 86.609568 -47.930075 1.526007 15.139680 2.365579 0.000000 0.000000 0.000000 0.000000 0.000000 0.000000 0.000000 0.000000 -0.000000 
-17.916066 14.241607 1.360872 -148.882855 -86.901560 151.618995 -1.692016 17.929150 5.133902 -9.838590 -28.449110 -57.846224 -2.277130 2.088107 41.007364 -16.751958 -3.177392 8.102757 -7.408599 8.356839 16.294858 2.060047 -15.159554 6.639470 24.633693 13.132217 -65.339077 -13.838722 -19.221378 82.189667 24.023628 -9.153190 4.792891 30.086687 29.552797 85.674243 -0.399534 -2.067982 0.200337 -0.070349 3.046166 0.355233 -6.608351 2.334949 7.956537 -0.315974 -0.489744 -3.740272 0.696282 -1.093669 17.779256 8.862843 -7.084309 6.703911 12.206159 0.809333 1.032156 -84.163392 22.551360 2.397500 161.199446 -78.713454 -148.056532 0.505073 8.523297 -1.170732 -0.000000 -0.000001 -0.000000 0.000000 0.000000 -0.000000 -0.000000 0.000000 0.000000 -4.348932 5.730741 10.444488 73.709864 46.592287 15.721764 -98.247450 81.442650 -61.421185 1.899698 14.202373 2.272627 0.000000 0.000000 0.000000 0.000000 0.000000 0.000000 0.000000 0.000000 0.000000 
-18.066967 14.208634 1.298146 -146.734123 -86.564913 149.306644 -1.740176 18.080510 5.049025 -9.484391 -28.352354 -58.310100 -3.241636 1.190449 44.111253 -13.677920 -2.330252 6.425287 -6.545805 8.647310 12.130049 1.860785 -15.244319 6.876074 24.171221 12.975092 -66.222854 -12.872718 -19.086347 83.377354 21.720326 -9.366523 4.514247 30.435239 45.343041 76.709375 -0.300979 -2.018878 -0.000261 0.012551 3.046520 0.354391 -6.305814 2.214453 7.990950 -0.435919 -0.327573 -3.609961 0.663421 -0.920469 17.925714 9.288901 -6.716289 6.877684 12.404612 0.698887 1.045594 -84.209037 23.027908 3.028947 160.720831 -78.048661 -147.286706 0.422905 8.817504 -1.216256 -0.000000 -0.000001 -0.000000 0.000000 -0.000000 0.000000 -0.000000 0.000000 -0.000000 -4.733268 5.569563 10.712066 74.239753 46.328882 19.626774 -105.780804 78.235264 -66.741840 2.215311 14.505538 2.366817 0.000000 -0.000000 0.000000 -0.000000 -0.000000 -0.000000 0.000000 -0.000000 0.000000 
-18.206456 14.180090 1.229056 -143.916704 -86.189298 146.286752 -1.626797 17.679903 4.942672 -8.731682 -27.910534 -58.718646 -4.658969 0.616265 46.964872 -10.482361 -0.940148 4.850251 -6.518224 10.715987 8.861772 2.012445 -15.149470 6.860463 23.141309 12.640291 -66.918345 -11.914931 -19.371542 84.469616 18.084109 -9.229192 4.656254 19.519455 50.010928 57.327104 -0.238553 -1.998674 0.003255 0.134703 2.959885 0.304897 -6.026572 1.931679 8.013428 -0.541299 -0.202252 -3.556160 0.593135 -0.768643 18.062158 8.792995 -6.130799 6.460566 12.552148 0.954729 1.344191 -84.151401 23.155909 3.493492 161.201084 -77.450153 -147.867125 0.042666 9.374929 -1.319193 -0.000000 -0.000001 -0.000000 0.000000 -0.000000 0.000000 0.000000 -0.000000 0.000000 -5.035921 5.709195 10.689241 74.745985 45.954986 22.583630 -110.811505 75.868595 -70.255760 2.111181 14.413404 2.336800 -0.000000 0.000000 0.000000 -0.000000 0.000000 -0.000000 -0.000000 0.000000 -0.000000 
-18.332883 14.154880 1.158722 -142.387908 -86.116822 144.613599 -1.448947 17.408828 5.075276 -8.242290 -27.825782 -59.380742 -5.015982 1.047545 48.980280 -9.015657 -0.311643 3.920090 -5.862602 8.710912 9.080139 2.033844 -15.133727 6.954380 21.972198 12.407458 -67.703319 -12.007021 -19.363061 85.249166 14.227251 -8.645781 4.049469 12.052991 49.749088 45.284328 -0.148879 -1.954354 -0.160327 0.178742 2.830784 0.345961 -5.719276 1.722690 7.990998 -0.799700 -0.079433 -3.344759 0.663790 -0.620267 18.109235 8.925235 -5.622582 6.484450 12.523683 0.776816 1.350017 -83.885171 22.684886 4.052564 160.709537 -77.323238 -147.241503 -0.061861 9.443548 -1.336141 -0.000000 -0.000001 -0.000000 0.000000 -0.000000 0.000000 0.000000 0.000000 0.000000 -5.472072 5.803311 10.436445 75.339398 45.068999 24.036278 -111.567527 75.068358 -69.519903 1.914719 15.152629 2.426345 0.000000 0.000000 0.000000 0.000000 -0.000000 0.000000 0.000000 0.000000 -0.000000 
-18.442643 14.142718 1.080047 -142.200746 -86.344977 144.131591 -1.553269 17.212060 4.959847 -8.473715 -27.511214 -59.476378 -4.517369 1.598009 50.561138 -8.702992 -0.463529 3.530517 -5.163474 6.728271 9.024254 2.222770 -15.002448 7.081296 19.906271 12.022771 -68.439513 -12.411479 -19.676316 85.727137 10.139642 -8.144573 3.102966 5.193495 47.988915 33.952576 -0.343607 -1.897801 -0.122347 0.245910 2.566942 0.434180 -5.328285 1.313928 8.048832 -1.189939 -0.036210 -3.194032 0.719597 -0.536046 18.114248 8.595233 -5.209210 6.147337 12.170458 0.712051 1.311916 -83.362290 21.652580 4.292215 161.132439 -77.553815 -148.351953 0.053683 10.058094 -1.415042 -0.000000 -0.000001 -0.000000 -0.000000 0.000000 0.000000 0.000000 0.000000 0.000000 -5.849239 6.040406 10.199891 75.824207 44.272467 24.616792 -110.863156 75.162321 -67.977439 2.215667 15.785544 2.574754 -0.000000 0.000000 0.000000 0.000000 -0.000000 0.000000 -0.000000 0.000000 -0.000000 
-18.550300 14.133904 1.004398 -145.307289 -86.522649 146.845455 -1.914003 17.162462 4.824257 -8.711766 -27.092075 -59.460713 -3.596976 2.298813 51.980026 -8.681374 -0.993659 3.426226 -5.107478 6.564730 9.025074 2.330157 -14.784515 7.108114 17.703558 11.583653 -68.887476 -12.993686 -20.093237 86.072292 6.807763 -7.868585 2.282379 1.143866 43.843382 26.453127 -0.618746 -1.823738 0.022343 0.282392 2.376420 0.529545 -5.379879 1.219300 8.369484 -1.139224 -0.031200 -3.318927 0.784361 -0.538926 18.120680 7.347499 -4.678687 6.302626 12.149399 0.627100 1.245704 -82.726693 20.295321 4.631292 161.275360 -77.782300 -148.597118 0.043675 9.856937 -1.387293 -0.000000 -0.000001 -0.000000 -0.000000 0.000000 0.000000 0.000000 -0.000000 -0.000000 -5.737776 5.892661 10.091119 76.261786 43.909963 25.109856 -110.226789 75.406119 -66.637133 2.542455 16.257234 2.704288 0.000000 0.000000 0.000000 0.000000 -0.000000 -0.000000 0.000000 0.000000 0.000000 
-18.650000 14.133634 0.924854 -145.415774 -86.882654 146.676750 -2.387029 16.678312 4.369585 -8.669345 -26.503972 -59.227849 -2.419857 3.345799 53.080097 -9.000264 -1.758307 3.584026 -5.166355 6.527182 9.308841 2.675058 -14.206664 7.150748 15.150021 10.586818 -69.554131 -13.355917 -20.728718 86.270133 4.003306 -8.015682 1.493858 -6.497033 45.326772 13.709482 -0.925624 -1.838767 0.141214 0.371504 1.935755 0.634271 -5.230802 0.881628 8.755538 -1.321672 0.062503 -3.536711 0.813946 -0.432340 18.121303 7.402615 -4.342699 6.831376 11.729914 0.924384 1.405605 -81.938803 18.605027 4.974282 161.324655 -78.020204 -149.123056 -0.101124 9.803100 -1.390152 -0.000000 -0.000001 -0.000000 0.000000 0.000000 0.000000 0.000000 0.000000 0.000000 -5.741233 6.014371 9.550770 76.696889 43.424493 25.829683 -107.759458 75.629496 -59.908651 1.831570 17.760686 2.829457 -0.000000 0.000000 0.000000 -0.000000 0.000000 0.000000 -0.000000 0.000000 0.000000 
-18.754204 14.149580 0.849881 -141.080427 -87.366823 142.297617 -2.732003 16.902404 4.285492 -8.699648 -26.814232 -59.121063 -1.361111 3.699728 53.556309 -9.469472 -2.634512 3.997055 -5.012094 5.839860 9.615714 2.867280 -14.200157 7.527370 12.432547 10.391198 -70.320731 -14.290461 -21.241378 85.959123 3.206060 -8.124245 0.443182 -9.859674 45.007020 7.966061 -1.051477 -1.823038 -0.045043 0.421641 1.545925 0.840692 -5.435066 0.809557 8.842213 -1.127921 0.152663 -3.400181 0.858779 -0.378530 18.003936 7.202995 -3.910460 6.777202 11.867062 0.680211 1.394274 -81.130520 16.389093 5.347294 160.575244 -78.891886 -149.047917 0.414385 9.686223 -1.336791 -0.000000 -0.000001 -0.000000 0.000000 -0.000000 0.000000 -0.000000 -0.000000 0.000000 -5.361263 6.047825 9.255649 76.960979 42.526488 25.107398 -103.668429 77.050342 -56.020512 1.456762 17.588752 2.737048 0.000000 -0.000000 0.000000 -0.000000 0.000000 0.000000 0.000000 -0.000000 0.000000 
